<svg class="visual__paths_svg" xmlns="https://www.w3.org/2000/svg" xmlns:xlink="https://www.w3.org/1999/xlink" id="PPF" x="0px" y="0px" viewBox="0 0 1920 733">
                    <path id="Rear_bumper" data-tooltip-pos="50% 25%" fill="#E31F26" stroke="#E31F26" stroke-miterlimit="10" d="M1722.9,283.8c-0.3-0.6-0.7-1.1-2.4-1c-1.3,0.1-1,1.9-0.6,2.3c0.2,0.2,0.8,0.4,0.8,0.8c0.1,2,0,7.3-2.1,7.5c-1.7,0.2-12.6-0.3-23.7-0.8c-9.2-0.4-18.3-1-21.5-2.5c-6.3-3.1-9.5-9.2-15.8-20.5l-48.2-1c0,0,9.3,11.5,13.4,23.7c2.4,6.9,4.6,12.2,5.7,23.8c8,0.1,19.2,2.9,28.4,33.6c0.2,0.7-0.7,1.1-1.1,0.5c-3.7-6.7-10.9-19.2-18.4-25.9c-2.9-2.6-5.8-4-8.6-4.3c0.1,1.7,0.2,3.5,0.3,5.5c0.7,17.5,0.2,38.1,0.2,38.1s15.3,0.2,32.3,2c18.1,1.9,37,1,36.8,21c0,0-0.1,10.3-5.9,12.7c-0.6,0.2-0.8,1-0.4,1.5c1.1,1.6,2.9,4.7,2.8,8.4c-0.1,4.9-1.9,8.3-5.2,10.2c-2.8,1.6,21.5,5.1,30.1-5.3c6.7-8.2,14.7-22.1,14.9-52.6S1736.8,312.1,1722.9,283.8z M1698.1,361.8c-11.2-2.3-17.2-3.3-29.1-4.3c-3.1-0.2-3.6-2.8-4-5.3c-0.3-1.7,0.5-2.7,2-2.3c4.2,1,12,2.1,21.5,3.8c8.6,1.6,11,4.2,11.3,6.5C1699.9,361.2,1699,362,1698.1,361.8z" class=""></path>
                    <path id="Front_bumper" data-tooltip-pos="50% 25%" fill="#E31F26" stroke="#E31F26" stroke-miterlimit="10" d="M853.1,372.1c-8.9,0.5-32,1.6-38.8,1.2c-7.6-0.4-40.4-20.8-47.6-25.3c-0.9-0.6-1.9-0.8-3-0.7c-7.8,0.8-42.3,3.5-60.8-8.5c-0.9-0.6-2-0.6-3-0.2c-6,2.6-27.4,11.9-51.4,20.4c-20.9,7.3-43.1,14.4-60.1,13.9c-37.4-1-10.5-32.1-0.6-42.3c1.6-1.6,1.2-4.3-0.8-5.4l-10.2-5.7c-0.7-0.4-1.6-0.6-2.4-0.5l-49.5,2.9c-1.2,0.1-2.3,0.3-3.4,0.7l-13.1,5.2c-1.4,0.6-3,0.9-4.5,0.9l-20.9,0.2c-1.1,0-2.2-0.3-3.2-0.8c-3.9-2.1-14-7.8-17.2-12c-0.4-0.6-1.2-0.9-1.9-0.9l-19.3,0.2c-0.9,0-1.7-0.4-2.2-1l-2.2-2.4c-0.8-0.9-2.2-1.2-3.3-0.7l-38.3,18.5c-0.6,0.3-1-0.5-0.5-0.9l23.8-18c0.8-0.6,0.9-1.9,0-2.5l-3.5-2.8c-1.1-0.9-2.6-1.1-3.9-0.6c-8.8,3.5-43.4,17.6-76.7,36.4c-13.7,7.7-27.2,15.8-38.7,24.9c-19.8,15.8-32,42.2-32.3,58.7c-0.7,38.3,4.9,47.6,13.5,52.1c1,0.5,1.7,1.3,2.1,2.4l4.3,12.5c0.6,1.8,0,3.8-1.6,4.9c-6.7,4.6-23.6,18.1-22.9,35.3c0.9,20.1,6.8,23.6,36.6,41.4s70.3,25.2,76,26.8c25.3,6.8,68.5,6.3,90.8,25.8c2.9,2.5,11.2,7,15.5,9.3c1.7,0.9,3.6,1.3,5.5,1.3c3.6-0.1,10.5-0.1,19.8,0.6c18.8,1.5,47.2,5.2,76.7,6.6c25.5,1.2,52,0.4,73.3,0.1c33.1-0.4,113.8-6.9,144.5-9.5c6.6-0.6,11.6-6.3,11.2-12.9c-1.4-23.1-3.3-76.3,4.9-129.9c9.5-62.2,34.1-105.4,41.2-116.8C855.5,373.7,854.5,372,853.1,372.1z M337.1,551.4c-4.4-2.1-13.3-5.6-17.8-8c-4.8-2.5-13.7-7.5-19-11.2c-7.1-4.9-11.8-12.7-11.7-21.3c0-2.2,0.2-6.5,0.2-8.6c0.1-2.4,0.5-3.5,3.2-5c1.6-0.9,4.9-2.4,6.5-3.2c8.3-3.8,18.1,0.1,21.8,8.4l20.5,46.4C342.1,551.6,339.7,552.7,337.1,551.4z M617.7,493.3l-76.8,2.2c-1.9,0.1-3.4,1.6-3.4,3.5c0.1,12.7,0.4,21.5-1.8,33.5c-2.8,15.7-7.4,26.1-11.6,33.4c-4.5,7.8-8.7,12.2-16.3,14.8c-5.9,2-43.5-0.7-64.3-5.2c-16.8-3.6-29.3-10.7-36.4-15.5c-4.1-2.8-7.2-6.9-8.8-11.6l-17.4-50.3c-0.4-1.1,0.4-2.1,1.5-2.1l11.9,0.2l3.2-4.5c2.2-10,17.7-18.6,17.7-18.6l-7.5-29.6c-0.3-1,0.4-2.1,1.5-2.2c16.1-1.9,124.7-15.9,165.5-2.5c40.2,13.2,47.2,33.3,50,45.3C625.9,488.7,622.4,493.1,617.7,493.3z" class=""></path>
                    <path id="Roof" fill="#E31F26" data-tooltip-pos="50% 25%" stroke="#E31F26" stroke-miterlimit="10" d="M1170.6,110c0,0-58.2-22.1-100.2-21.2c-29.3,0.6-48.8,5.2-57.4,8.4c-2.2,0.8-3.7-0.3-1.5-2.2c6.8-5.6,24.7-16.3,70.7-28.3c23.7-6.2,60.6-13.3,102.5-18.2c33.7-4,69.6-6.9,101-5.5c50.2,2.2,91,22.9,138.5,54.7c0.7,0.5,0.3,1.6-0.5,1.5c-7.6-0.4-28.3-1.5-52.4-1.3c-18.9,0.1-40,1.2-58.3,3.3c-9.9,1.1-19,2.1-26.5,4.2C1286.5,105.4,1238.9,101.2,1170.6,110z" class=""></path>
                    <path id="Hood" fill="#E31F26" data-tooltip-pos="50% 25%" stroke="#E31F26" stroke-miterlimit="10" d="M1102.8,152.5c-1.1-0.1-2.3-0.2-3.8-0.2c-5.4,0-53.7-2.8-121.2-2.7c-40.1,0-87,0.9-135.8,4.4c-106.3,7.7-142.1,13.9-224,31.1c-31.2,6.6-90.9,24.5-143.5,44.9C416.6,252.4,367,277,367,277c-34,16-41,18.1-41,24.1s21.9,5.9,29.3,6c18.3,0.2,44.2-0.4,74.7-7c6.4-1.4,15.9-3.4,27.5-7.1c19.8-6.3,44.5-16.1,66.8-24.3c30.5-11.2,30.5-10.9,56.5-20.7c0,0,13.8-4.9,37.6-12.7c35.9-11.7,72.3-23.6,121-36.8c24.6-6.7,47.7-12.6,69.3-17.3c59-13,106.9-19.8,143.7-22.6c51-3.8,142.3-3.3,143.3-3.3c0.5,0,3.8-0.1,7-0.2C1104.3,155.1,1104.4,152.7,1102.8,152.5z M394.7,274.7c-4.6,2-9.6,4.6-14.3,6.8c-5.3,2.5-10.2,4.6-13.2,5.7c-0.6,0.2-1-0.6-0.5-1c4.5-3.4,16-9.1,26.1-13.8C397.2,270.3,405.6,270.1,394.7,274.7z" class=""></path>
                    <path id="Front_fenders" fill="#E31F26" data-tooltip-pos="50% 25%" stroke="#E31F26" stroke-miterlimit="10" d="M787.9,320.6c-1-0.5-1-1.9,0-2.4c48.8-21.6,89.2-61.6,97.8-82.4c6.2-15.1,3.3-23.8,3.3-23.8s-104.4,26.6-138.7,36.7c-2.9,0.9-9.6,2.8-13.5,3.9c-1.9,0.5-3.7,1.4-5.2,2.5L722,262c0,0-20.5,14.7-30.3,22c-7.5,5.6-22.4,20.1-27.5,25.1c-1.1,1-2.7,1.3-4,0.6l-11.6-6.1c-0.7-0.3-1.4-0.5-2.2-0.5l-53,3.7c-2,0.1-3.2-2.2-1.8-3.7l0.7-0.8c0,0,101.5-34.6,112.6-39.1s14.5-8.1,31.3-16.6s57.9-27.7,78-34c23.3-7.3,31.8-10.2,61.1-13.8c29.3-3.7,106.9-7.8,124.2-8.1c28.5-0.4,107.3-2.5,111.3-2.5s59.5-1,101.5,1.3c44.6,2.4,64.8,4.5,65.8,4.8s1.2,1.7,1.7,5.2s4.4,23.8,5,77.5c0.6,50.8-1.6,111.8-2,124.8c-0.8,24.3-4,71.7-4.8,85.4c-0.1,1.7-1.1,3.2-2.7,4l-17.5,8.8l-11,2.1c-1.8,0.4-3.5-1-3.5-2.9c0.1-8.5,1.5-36,0.3-57.2c-1.4-24.6-4.3-46.6-10.7-66.2c-21.1-64.5-68.8-106.3-124.8-108.3c-48-1.7-92.5,25.6-114.9,43.1c-6.5,5.1-10.8,9.3-13,11.8c-1.3,1.4-3.1,2.2-5,2.3l-153.4,6c0,0-14.2-0.5-23-4.8C793.8,323.4,790.2,321.6,787.9,320.6z" class=""></path>
                    <path id="Doors" fill="#E31F26" data-tooltip-pos="50% 25%" stroke="#E31F26" stroke-miterlimit="10" d="M1587,252.5c-5-30.3-27-37.3-34.3-41.8c-3.2-2-9.4-4.8-12.8-6.3c-1.5-0.7-3.2-1-4.8-1c-39.9,0.1-53.3,0.3-85.1-0.1c-35.2-0.4-43-1.3-75-2.1c-40.6-1.1-70.9-5.4-78.9-6.6c-1-0.2-1.8,0.7-1.6,1.7c1.9,9.6,3.7,26.1,4.4,45.1c1.6,41.5,0.6,95.2,0.4,116c-0.2,27.6-5.8,107-7,124c-0.1,1.6,1.4,2.9,2.9,2.5c8.3-1.8,32.3-7.7,67.3-15.4c24.8-5.4,55.2-11.5,89.3-18.9c27.5-6,50.2-12,70.2-23c17.4-9.5,35-45.5,49.2-81.5S1591.6,280.2,1587,252.5z M1576.2,284.3c-2.5,2.1-6,2.9-11.4,3s-9.4-0.1-15.1-4.7s-5.8-8.1-5.9-13.2s-0.2-7.2,4.7-12.8s11.4-4.5,22.5-4.5s9.6,16.6,9.6,16.6C1580.8,280.3,1578.7,282.2,1576.2,284.3z" class="visual__path_active"></path>
  <path id="Wheel_arches" fill="#E31F26" data-tooltip-pos="50% 25%" stroke="#E31F26" stroke-miterlimit="10" d="M1292.6,492.8c-2.1,0.3-3.7,1.7-3.8,3.7c-0.6,7.1-2.5,22.8-4.5,30.2c-2.6,9.5-4,18.6-25.2,16.9c-0.8-0.1-1.3,0.9-0.7,1.5c1.4,1.4,5.5,2.5,10.8,3.1c9.2,1,22.2-5.2,32.1-8.6c19.9-6.8,74-21.4,128.1-35.8c68.5-18.3,105-27.8,137.2-36.5c13.7-3.7,12.8-1.6,30.2-6.3c30.4-8.2,45.4-10.6,51.3-11.3c1.9-0.2,3.5-1.6,3.8-3.4c1.5-8.8,4.1-19.2,5.6-33.3c1.8-16.9,5.5-47.5,10.8-67c3.8-13.9,17.2-57.5,34-72.5c15.3-13.6,26-7.6,31-2.3c0,0,1.8,2.7,4,1.9c2.2-0.8,5.6-1.1,6.3-3.8c0.7-2.7,1.7-9-4.1-16.3c-5.8-7.3-10.6-23.2-42.6-34c-27.9-9.4-46.2-9.2-61-21.3c-12.9-10.5-35.2-33.3-56.7-52.6c-11.8-10.6-24.1-20.1-32.5-26c-25.9-18-64.8-41-102-49.2c-18.4-4.1-39.2-9.1-62.4-6.1c-8.2,1-15.1,2.8-24.3,6.1c0,0-4,1.9,1.5,4c6.8,2.5,17.9,1.8,11.2,8.6c-1.9,1.9-12.1,13.7-24.7,29.9c-18.8,24.3-41.9,59.3-57.2,83.6c-0.6,0.9,0.2,2,1.2,1.8c3.8-0.8,11.3-2.1,20.6-2.6c7.7-0.5,14.2-0.5,17-0.5c1,0,1.9-0.5,2.3-1.4c3.2-5.9,15.8-29.4,29.4-52c12.5-20.9,26.1-41.1,31.1-46.4c7.4-7.8,15.2-16.9,36.1-16.9c10.4,0,23.4,1.2,42.5,8.1c14.8,5.3,14.3,5,35.3,16.5c6.8,3.7,14.7,10,26,17.2c0.5,0.3,1,0.5,1.5,0.5l4.2,0.4c0.4,0,0.8,0.1,1.2,0.3c2,0.9,8.6,4.3,14.7,9c7.3,5.7,34.9,27.8,62.3,59.2c0,0,2,1.8,3.5,2c1.6,0.2,1.7,2.8,1.7,5.3c0,2.3,0,4-3.3,4c-2.8,0-17.2,0.3-30.8,0.6c-12,0.3-25.1,0.9-31.1,1.2c-0.6,0-0.7,0.9-0.1,1c8,2.4,30.4,10.8,42.1,26.4c12.1,16.1,9.6,53.7,6,71.2c-3.2,15.5-15.3,52.1-20.8,61.9c-1.2,2.1-2.2,4.3-3.1,6.5c-1.1,2.8-3.3,6.8-5.2,11.5c-3.8,9.7-15.9,36.3-33.8,46.3c-13.4,7.5-49.2,18-93.2,27.5s-118.9,24.7-123.2,25.8c-2.7,0.7-13.9,7.5-18.1,9.7c-0.8,0.4-2.9,1.6-3.8,1.7C1298.9,491.9,1292.6,492.8,1292.6,492.8z" class="visual__path_active"></path>
  <path id="Side_mirrors" fill="#E31F26" data-tooltip-pos="50% 25%" stroke="#E31F26" stroke-miterlimit="10" d="M1489.1,141.3c-20.5-8.2-46.8-12.8-69.3-7.1c-17.5,4.5-25.5,21-27.6,26.7c-0.4,1.1,0.3,2.2,1.4,2.5c2.6,0.5,7.9,1.2,17.2,1.2c9,0,9,9.7,9.4,13.2c0.5,4.3,0.2,10.5,31,10.2c32.4-0.3,40.6-5.1,48.4-12.1S1511.2,150.2,1489.1,141.3z M1460.8,180.8c-20.3,0.2-31.9,1.7-32.2-7.3c-0.2-5.6-0.2-9.6-0.3-11.6c0-0.8,0.6-1.4,1.4-1.4c0,0,33-0.3,44,1c4.9,0.6,9.9,2.5,10.8,9.6C1485.5,179.6,1476.2,180.7,1460.8,180.8z" class=""></path>
</svg>